<svg fill="#00162f" viewBox="0 0 1024 1024" xmlns="http://www.w3.org/2000/svg"><path d="M1024 637.86666667c0-147.2-147.2-262.4-307.2-262.4-172.8 0-307.2 115.2-307.2 262.4 0 147.2 134.4 262.4 307.2 262.4 38.4 0 70.4-6.4 108.8-19.2l102.4 51.2L896 849.06666667C972.8 791.46666667 1024 721.06666667 1024 637.86666667zM614.4 593.06666667c-19.2 0-38.4-19.2-38.4-38.4 0-19.2 19.2-38.4 38.4-38.4 25.6 0 44.8 19.2 44.8 38.4C659.2 573.86666667 646.4 593.06666667 614.4 593.06666667zM812.8 593.06666667c-19.2 0-38.4-19.2-38.4-38.4 0-19.2 19.2-38.4 38.4-38.4 25.6 0 44.8 19.2 44.8 38.4C864 573.86666667 844.8 593.06666667 812.8 593.06666667z"></path><path d="M364.8 106.66666667C166.4 106.66666667 0 241.06666667 0 413.86666667c0 102.4 51.2 179.2 147.2 243.2l-38.4 108.8 128-64c44.8 6.4 83.2 19.2 128 19.2 12.8 0 25.6 0 32 0C390.4 695.46666667 384 669.86666667 384 644.26666667c0-160 134.4-288 307.2-288 12.8 0 25.6 0 32 0C697.6 215.46666667 537.6 106.66666667 364.8 106.66666667zM243.2 349.86666667C217.6 349.86666667 192 330.66666667 192 305.06666667c0-25.6 25.6-44.8 57.6-44.8s44.8 19.2 44.8 44.8C288 330.66666667 268.8 349.86666667 243.2 349.86666667zM499.2 349.86666667c-25.6 0-57.6-19.2-57.6-44.8 0-25.6 25.6-44.8 57.6-44.8 25.6 0 44.8 19.2 44.8 44.8C544 330.66666667 524.8 349.86666667 499.2 349.86666667z"></path></svg>