<svg fill="#00162f" viewBox="0 0 1292 1024" xmlns="http://www.w3.org/2000/svg"><path d="M1144.13517757 220.02027001c-15.41262506 32.39424892-41.99586848 55.44520589-68.75586218 77.21268362-16.48128485 13.38951453-20.53022578 27.21682532-21.58257011 47.41530502-12.18217363 231.05341615-113.26430452 409.36454535-325.99279392 508.42356495-176.88353139 82.36019617-355.42035727 69.40032131-526.63972241-26.19439283-3.44527087-1.90618389-8.05709358-2.99659739-8.29094761-10.93676433 69.51452883 4.90278128 136.92980802-3.97280259 200.58710406-33.12572284 26.13728905-11.9483196 51.94011214-24.75319788 77.92512373-47.25215032-13.00066392-2.56695772-22.36299044-4.20393751-31.58663663-6.34397622-64.78577871-14.75185124-111.20040493-52.42957392-140.11947115-112.13582107-6.92861168-14.29230052-6.6757223-21.76747773 12.80487906-20.09514866 18.13729924 1.55812156 36.52748632 0.33174685 55.97001849-2.56695771-89.40301537-35.61382387-141.79452012-96.4295191-146.28941621-196.70403693 28.16039958 8.32901756 51.86397303 20.91091905 83.35271684 20.26645991-40.6580046-34.50709491-68.27183865-73.04137704-77.76740803-122.58856186-9.28346906-48.39150945-3.5241291-94.0855382 23.0808688-139.60553578 37.01694887 41.30518283 74.53695663 78.00126208 118.28673153 107.84486875 80.3941894 54.84153582 169.15546477 86.15624848 265.58498388 97.06310099 16.46496937 1.8599566 24.57916672 0.8157704 22.28413299-20.31812544-9.03058044-83.22491298 22.9231531-149.16908618 93.84080692-192.23633357 71.94824444-43.67907557 148.02156893-42.9312854 215.65166757 7.1325539 32.07066018 23.74979997 57.75927498 24.77223246 89.91151251 10.28414786 20.88100722-9.40039647 41.9768339-18.24606851 69.03050528-29.9387796-16.54382684 44.88641571-41.02510151 77.09575699-80.86189748 104.07600837 37.22904921 0.23385404 66.55600138-15.4724487 97.85167869-21.45748534l1.72399538 1.78109913z"></path></svg>