<svg xmlns="http://www.w3.org/2000/svg" viewBox="0 0 1920 916">
    <path fill="#fff" d="M0,1087v920H1920V1087Zm1168.24,315.24c-32.65,19.3-46.57,34.4-68.18,128.15C1052.54,1736.5,770.18,1850,770.18,1850l98.3-189.31q-9.66,1.5-20,2.41c-217.92,18.67-269.34-160.76-269.34-160.76l60.11,25.13-.07-.11.05,0C601.57,1467.29,611.7,1402,611.7,1402c65.8,60.09,128.79,90.61,193.22,105.09-22-17.35-74.59-68.07-59.32-151.87,8.92-48.92,23.89-69.9,23.89-69.9,15.49,34.93,23.94,46.91,41.67,77.61h0l.22.39c24.41-78.72,66.09-114.34,66.09-114.34.21,118.44,30.43,194.61,73.87,252.19L991.93,1423s19.4-66.8,79.84-72.8c74.16-7.37,268.66,33.72,268.66,33.72l1.26.79S1214.05,1375.16,1168.24,1402.24Z" transform="translate(0 -1087)"/>
</svg>